<svg width="167" height="52" viewBox="0 0 167 52" fill="none" xmlns="http://www.w3.org/2000/svg">
<path d="M166.142 44.68L154.75 51.144V6.91998H166.142V44.68Z" fill="white"/>
<path d="M147.807 6.91998L139.423 15.368H114.079V36.232H135.072V29.64H127.264L119.583 21.96H146.464V36.232L138.016 44.68H111.264L102.688 36.104V15.496L111.264 6.91998H147.807Z" fill="white"/>
<path d="M95.1385 36.04L86.5625 44.616H55.1385L46.5625 36.04V15.496L55.1385 6.91998H86.5625L95.1385 15.496V36.04ZM83.7465 36.232V15.304H57.9545V36.232H83.7465Z" fill="white"/>
<path d="M43.776 36.232L35.328 44.68H0V6.92L11.392 0.328003V36.232H43.776Z" fill="white"/>
</svg>
